<svg width="102" height="19" viewBox="0 0 102 19" fill="none" xmlns="http://www.w3.org/2000/svg">
<path d="M8.31562 3.74927C8.61497 2.82796 9.91838 2.82796 10.2177 3.74927L10.9929 6.13511C11.1268 6.54713 11.5108 6.82609 11.944 6.82609H14.4526C15.4213 6.82609 15.8241 8.06571 15.0404 8.63511L13.0109 10.1096C12.6604 10.3643 12.5137 10.8157 12.6476 11.2277L13.4228 13.6135C13.7222 14.5348 12.6677 15.301 11.884 14.7316L9.85446 13.257C9.50397 13.0024 9.02938 13.0024 8.67889 13.257L6.64937 14.7316C5.86566 15.301 4.81118 14.5348 5.11053 13.6135L5.88574 11.2277C6.01961 10.8157 5.87296 10.3643 5.52247 10.1096L3.49295 8.63511C2.70924 8.06571 3.11201 6.82609 4.08074 6.82609H6.58936C7.02258 6.82609 7.40654 6.54713 7.54041 6.13511L8.31562 3.74927Z" fill="#FFC908"/>
<path d="M29.4713 3.74927C29.7707 2.82796 31.0741 2.82796 31.3734 3.74927L32.1486 6.13511C32.2825 6.54713 32.6665 6.82609 33.0997 6.82609H35.6083C36.577 6.82609 36.9798 8.06571 36.1961 8.63511L34.1666 10.1096C33.8161 10.3643 33.6694 10.8157 33.8033 11.2277L34.5785 13.6135C34.8779 14.5348 33.8234 15.301 33.0397 14.7316L31.0102 13.257C30.6597 13.0024 30.1851 13.0024 29.8346 13.257L27.8051 14.7316C27.0214 15.301 25.9669 14.5348 26.2662 13.6135L27.0414 11.2277C27.1753 10.8157 27.0287 10.3643 26.6782 10.1096L24.6487 8.63511C23.8649 8.06571 24.2677 6.82609 25.2364 6.82609H27.7451C28.1783 6.82609 28.5622 6.54713 28.6961 6.13511L29.4713 3.74927Z" fill="#FFC908"/>
<path d="M50.6269 3.74927C50.9262 2.82796 52.2296 2.82796 52.529 3.74927L53.3042 6.13511C53.4381 6.54713 53.822 6.82609 54.2552 6.82609H56.7639C57.7326 6.82609 58.1354 8.06571 57.3517 8.63511L55.3221 10.1096C54.9716 10.3643 54.825 10.8157 54.9589 11.2277L55.7341 13.6135C56.0334 14.5348 54.9789 15.301 54.1952 14.7316L52.1657 13.257C51.8152 13.0024 51.3406 13.0024 50.9901 13.257L48.9606 14.7316C48.1769 15.301 47.1224 14.5348 47.4218 13.6135L48.197 11.2277C48.3309 10.8157 48.1842 10.3643 47.8337 10.1096L45.8042 8.63511C45.0205 8.06571 45.4233 6.82609 46.392 6.82609H48.9006C49.3338 6.82609 49.7178 6.54713 49.8517 6.13511L50.6269 3.74927Z" fill="#FFC908"/>
<path opacity="0.4" d="M71.7824 3.74927C72.0818 2.82796 73.3852 2.82796 73.6845 3.74927L74.4597 6.13511C74.5936 6.54713 74.9776 6.82609 75.4108 6.82609H77.9194C78.8881 6.82609 79.2909 8.06571 78.5072 8.63511L76.4777 10.1096C76.1272 10.3643 75.9805 10.8157 76.1144 11.2277L76.8896 13.6135C77.189 14.5348 76.1345 15.301 75.3508 14.7316L73.3213 13.257C72.9708 13.0024 72.4962 13.0024 72.1457 13.257L70.1162 14.7316C69.3325 15.301 68.278 14.5348 68.5773 13.6135L69.3525 11.2277C69.4864 10.8157 69.3398 10.3643 68.9893 10.1096L66.9597 8.63511C66.176 8.06571 66.5788 6.82609 67.5475 6.82609H70.0562C70.4894 6.82609 70.8733 6.54713 71.0072 6.13511L71.7824 3.74927Z" fill="#C4C4C4"/>
<path opacity="0.4" d="M91.4269 3.74927C91.7262 2.82796 93.0296 2.82796 93.329 3.74927L94.1042 6.13511C94.2381 6.54713 94.622 6.82609 95.0552 6.82609H97.5639C98.5326 6.82609 98.9354 8.06571 98.1516 8.63511L96.1221 10.1096C95.7716 10.3643 95.625 10.8157 95.7589 11.2277L96.5341 13.6135C96.8334 14.5348 95.7789 15.301 94.9952 14.7316L92.9657 13.257C92.6152 13.0024 92.1406 13.0024 91.7901 13.257L89.7606 14.7316C88.9769 15.301 87.9224 14.5348 88.2218 13.6135L88.997 11.2277C89.1309 10.8157 88.9842 10.3643 88.6337 10.1096L86.6042 8.63511C85.8205 8.06571 86.2232 6.82609 87.192 6.82609H89.7006C90.1338 6.82609 90.5178 6.54713 90.6517 6.13511L91.4269 3.74927Z" fill="#C4C4C4"/>
</svg>
